<?xml version="1.0" encoding="UTF-8"?>
<svg width="512px" height="512px" viewBox="0 0 512 512" version="1.1" xmlns="http://www.w3.org/2000/svg" xmlns:xlink="http://www.w3.org/1999/xlink">
  <!-- Generator: Sketch 51 (57462) - http://www.bohemiancoding.com/sketch -->
  <title>Icon@1x</title>
  <desc>Created with Sketch.</desc>
  <defs>
    <linearGradient x1="50%" y1="0%" x2="50%" y2="100%" id="linearGradient-1">
      <stop stop-color="#FF8126" offset="0%"></stop>
      <stop stop-color="#FF117E" offset="100%"></stop>
    </linearGradient>
  </defs>
  <g id="Icon" stroke="none" stroke-width="1" fill="none" fill-rule="evenodd">
    <rect id="Background" fill="url(#linearGradient-1)" x="0" y="0" width="512" height="512"></rect>
    <g id="Group" transform="translate(76.000000, 165.000000)" fill="#FFFFFF">
      <path d="M166.596413,154.690216 C153.588911,154.690216 145.759186,144.626773 145.759186,133.85277 C145.759186,116.476333 159.233676,100.830399 177.640519,100.830399 C190.896854,100.830399 205.970013,108.343983 207.3403,123.598938 C208.870795,140.669392 182.54901,154.690216 166.596413,154.690216 M181.816145,17.3820225 C161.442498,17.3820225 136.651207,33.7589152 136.651207,57.0136269 C136.651207,70.476881 147.146516,80.1051476 159.479101,80.730713 C167.622425,81.14549 182.109291,73.2137294 179.852749,60.6854235 C178.721069,54.4195706 175.186273,50.1596066 169.054068,50.1596066 C159.479101,50.1596066 156.298808,57.6289928 158.988252,64.846793 C153.987726,66.6962905 149.16786,63.3814741 149.16786,56.5206542 C149.16786,43.3021865 160.951648,35.4724203 172.735436,35.4724203 C204.15319,35.4724203 205.622329,73.6591048 205.622329,94.4693519 C163.16047,77.3309013 113.649472,101.710951 124.625404,151.263206 C132.192661,185.438112 180.098173,180.396192 203.413507,154.935002 L203.413507,175.718051 C208.526519,178.040122 224.717723,176.907985 233.846154,172.291041 L233.846154,171.063709 C232.619031,161.027465 232.220216,72.9213456 227.959373,54.8071491 C221.02272,25.3307821 200.955853,17.3820225 181.816145,17.3820225" id="Fill-1"></path>
      <path d="M334.464191,103.610701 L333.980341,106.246009 C317.737278,181.809591 260.516856,147.526867 273.458151,90.8677297 C286.164335,35.2112294 344.829494,46.9786618 334.464191,103.610701 M324.068222,35.0689634 C284.750265,25.4761687 257.876123,45.1630764 248.61141,95.7962312 C233.632491,177.622905 340.720172,205.669635 357.849158,112.078916 C358.728267,107.279132 359.45745,101.957705 359.743671,96.3077115 C361.634777,69.6328323 353.388875,42.2229119 324.068222,35.0689634" id="Fill-3"></path>
      <path d="M98.2327073,36.5285621 C122.328355,32.4653221 139.756793,28.1449577 139.756793,28.1449577 L150.769231,0 C60.5039065,28.2430709 11.0395951,15.173715 11.0395951,15.173715 L0,41.9924528 C19.3803962,44.6212101 42.7258131,43.5994795 64.7438986,41.2109304 C33.1153907,112.332856 44.6302451,182 44.6302451,182 L77.392586,170.067404 C61.9432633,109.518022 91.4772355,49.1919323 98.2327073,36.5285621" id="Fill-6"></path>
    </g>
  </g>
</svg>
